# xmcd
#
# Track frame offsets: 
#        150
#        47554
#        75973
#        81355
#        113002
#        181676
#        255936
#
# Disc length: 3984 seconds
#
# Revision: 0
# Processed by: cddbd v1.5.2PL0 Copyright (c) Steve Scherf et al.
# Submitted via: ExactAudioCopy v0.95a5
#
DISCID=400f8e07
DTITLE=吕思清 卢静怡， 黄蒙拉 薛颖佳 - 贝多芬钢奏5，9号
DYEAR=2018
DGENRE=Folk
TTITLE0=贝多芬-钢奏5号“春天”-1.快板
TTITLE1=贝多芬-钢奏5号“春天”-2.柔板
TTITLE2=贝多芬-钢奏5号“春天”-3.谐谑曲 快板
TTITLE3=贝多芬-钢奏5号“春天”-4.回旋曲 快板
TTITLE4=贝多芬-钢奏9号“克鲁采”-1
TTITLE5=贝多芬-钢奏9号“克鲁采”-2
TTITLE6=贝多芬-钢奏9号“克鲁采”-3
EXTD=
EXTT0=
EXTT1=
EXTT2=
EXTT3=
EXTT4=
EXTT5=
EXTT6=
PLAYORDER=
